2.5Hzlow3min_grf.mot
version=1
nRows=12
nColumns 19
inDegrees=yes
endheader
time	1_ground_force_vx	1_ground_force_vy	1_ground_force_vz	1_ground_force_px	1_ground_force_py	1_ground_force_pz	1_ground_torque_x	1_ground_torque_y	1_ground_torque_z	2_ground_force_vx	2_ground_force_vy	2_ground_force_vz	2_ground_force_px	2_ground_force_py	2_ground_force_pz	2_ground_torque_x	2_ground_torque_y	2_ground_torque_z
            3.751500	            5.024066	          171.310782	          -12.668241	           -0.187837	            0.006312	           -0.424136	           -0.020088	           -0.684967	            0.050653	            1.737024	          142.159914	            3.509692	           -0.207347	            0.005590	           -0.657010	            0.014308	            1.170960	            0.028909
            3.752000	            4.978504	          169.147782	          -12.723259	           -0.188625	            0.006303	           -0.421988	           -0.021816	           -0.741207	            0.055753	            1.605635	          139.582517	            3.172056	           -0.206195	            0.005597	           -0.657926	            0.013393	            1.164276	            0.026459
            3.752500	            4.934137	          163.558750	          -12.563683	           -0.187286	            0.006314	           -0.424640	           -0.018576	           -0.615779	            0.047301	            1.337143	          136.082844	            3.112763	           -0.205242	            0.005597	           -0.656879	            0.010898	            1.109061	            0.025369
            3.753000	            4.752723	          160.311574	          -12.026871	           -0.186992	            0.006312	           -0.424136	           -0.012027	           -0.405679	            0.030435	            0.545203	          134.792094	            2.780006	           -0.204831	            0.005602	           -0.657881	            0.004645	            1.148443	            0.023686
            3.753500	            4.340534	          156.886839	          -12.132245	           -0.186677	            0.006311	           -0.423772	           -0.010357	           -0.374350	            0.028949	            0.372823	          130.558174	            2.154908	           -0.203902	            0.005601	           -0.656651	            0.003192	            1.117949	            0.018452
            3.754000	            4.250597	          152.919207	          -11.736319	           -0.186128	            0.006311	           -0.423866	           -0.011761	           -0.423128	            0.032474	            0.145075	          128.717032	            1.819940	           -0.203908	            0.005600	           -0.656472	            0.001158	            1.027113	            0.014522
            3.754500	            3.884769	          150.394631	          -11.562807	           -0.186430	            0.006308	           -0.423182	           -0.016577	           -0.641772	            0.049341	           -0.267351	          126.138102	            1.623208	           -0.202722	            0.005604	           -0.656302	           -0.002207	            1.041150	            0.013398
            3.755000	            3.978105	          146.967831	          -11.165017	           -0.186226	            0.006309	           -0.423416	           -0.018721	           -0.691625	            0.052542	           -0.446960	          123.929152	            1.193050	           -0.203077	            0.005604	           -0.656638	           -0.003454	            0.957688	            0.009220
            3.755500	            3.566955	          144.081928	          -10.809514	           -0.186458	            0.006302	           -0.421719	           -0.018040	           -0.728683	            0.054668	           -0.857516	          120.798774	            0.712779	           -0.201512	            0.005603	           -0.654723	           -0.007173	            1.010450	            0.005962
            3.756000	            3.613687	          139.214763	          -10.830497	           -0.185696	            0.006310	           -0.423484	           -0.015896	           -0.612381	            0.047641	           -1.040367	          119.509904	            0.473619	           -0.202269	            0.005607	           -0.656576	           -0.008275	            0.950542	            0.003767
            3.756500	            3.293717	          137.230796	          -10.608924	           -0.185926	            0.006303	           -0.421965	           -0.009355	           -0.389765	            0.030132	           -1.174455	          117.669419	            0.044755	           -0.200972	            0.005612	           -0.656845	           -0.008754	            0.877025	            0.000334
            3.757000	            3.157496	          133.804542	          -10.348133	           -0.184828	            0.006307	           -0.422902	           -0.006588	           -0.279187	            0.021592	           -1.446229	          115.090160	            0.082604	           -0.200110	            0.005616	           -0.656985	           -0.011183	            0.889952	            0.000639
